<svg width="56" height="56" viewBox="0 0 56 56" fill="none" xmlns="http://www.w3.org/2000/svg">
<g clip-path="url(#clip0)">
<path d="M41.3688 23.0375C41.382 22.8658 41.3886 22.6935 41.3886 22.5208C41.3886 19.5886 39.5134 17.0935 36.9377 16.3518C36.163 14.1334 34.1336 12.5781 31.8161 12.5781C30.346 12.5781 28.9845 13.2017 27.9835 14.2188C26.9905 13.2016 25.6409 12.5781 24.1847 12.5781C21.8673 12.5781 19.8378 14.1334 19.0631 16.3518C16.4874 17.0935 14.6122 19.5887 14.6122 22.5208C14.6122 22.6935 14.6189 22.8657 14.632 23.0375C13.0161 24.2129 12.0244 26.16 12.0244 28.3007C12.0244 29.9296 12.6072 31.4715 13.628 32.6397C13.3372 33.3969 13.1867 34.2092 13.1867 35.0422C13.1867 38.4076 15.6564 41.1739 18.7789 41.4182C19.9625 42.6874 21.5976 43.4243 23.2988 43.4243C25.1616 43.4243 26.839 42.5692 28.0005 41.2104C29.1619 42.5692 30.8395 43.4243 32.7022 43.4243C34.4034 43.4243 36.0385 42.6874 37.2221 41.4182C40.3445 41.1739 42.8142 38.4076 42.8142 35.0422C42.8142 34.2092 42.6637 33.3969 42.373 32.6397C43.3938 31.4715 43.9766 29.9296 43.9766 28.3007C43.9763 26.16 42.9847 24.2129 41.3688 23.0375ZM23.2986 40.143C22.3595 40.143 21.4844 39.6662 20.8975 38.8346C20.5887 38.397 20.0876 38.1399 19.5574 38.1399C19.514 38.1399 19.4703 38.1417 19.4267 38.1452C19.3478 38.1514 19.2831 38.1545 19.2287 38.1545C17.7063 38.1545 16.4678 36.7583 16.4678 35.0422C16.4678 34.3669 16.658 33.7238 17.018 33.1825C17.5088 32.4442 17.3245 31.4496 16.6016 30.9364C15.79 30.36 15.3053 29.3748 15.3053 28.3007C15.3053 27.0196 16.0211 25.8508 17.0863 25.3921C17.8394 25.0679 18.2375 24.2374 18.0186 23.4473C17.9353 23.1467 17.8931 22.835 17.8931 22.5208C17.8931 20.8668 19.0397 19.5019 20.5035 19.4135C21.2909 19.3659 21.9329 18.7647 22.0322 17.9821C22.1856 16.772 23.1109 15.8594 24.1845 15.8594C25.2398 15.8594 26.163 16.7536 26.3321 17.9394C26.339 17.9876 26.3482 18.035 26.359 18.0815V36.2984C26.3533 36.3684 26.3516 36.4389 26.3551 36.5099C26.3569 36.5472 26.3571 36.585 26.358 36.6225C26.3581 36.6279 26.3581 36.6346 26.3582 36.6397L26.359 36.7058C26.359 36.715 26.3596 36.7241 26.3596 36.7334C26.3464 38.6159 24.9786 40.143 23.2986 40.143ZM39.3989 30.9364C38.6761 31.4496 38.4917 32.4442 38.9825 33.1825C39.3426 33.7238 39.5328 34.3669 39.5328 35.0422C39.5328 36.7583 38.2942 38.1545 36.7718 38.1545C36.7175 38.1545 36.6527 38.1514 36.5738 38.1452C35.9959 38.099 35.4371 38.3611 35.1031 38.8346C34.5162 39.6662 33.6411 40.143 32.702 40.143C31.022 40.143 29.6541 38.6159 29.6408 36.7334C29.6408 36.7242 29.6414 36.7151 29.6414 36.7058C29.6414 36.6452 29.6406 36.5842 29.6389 36.5214C29.6407 36.491 29.6414 36.4603 29.6414 36.4295V17.8325C29.8501 16.7003 30.7679 15.8594 31.8159 15.8594C32.8894 15.8594 33.8148 16.772 33.9682 17.9821C34.0674 18.7647 34.7094 19.3659 35.4969 19.4135C36.9607 19.502 38.1073 20.8668 38.1073 22.5208C38.1073 22.835 38.0651 23.1467 37.9818 23.4473C37.763 24.2375 38.1611 25.0679 38.9141 25.3921C39.9793 25.8507 40.6951 27.0196 40.6951 28.3007C40.6951 29.3748 40.2106 30.36 39.3989 30.9364Z" fill="#3B4A9E"/>
<path d="M56 28.0011C56 25.7607 54.4224 23.8821 52.3179 23.4108C51.3815 18.4388 48.9677 13.934 45.324 10.3694C41.7821 6.9044 37.373 4.61693 32.535 3.72454C31.974 1.75163 30.1541 0.301758 28 0.301758C25.8461 0.301758 24.0263 1.75141 23.4652 3.72399C18.5904 4.62207 14.1582 6.93327 10.6005 10.4436C6.99202 14.0039 4.60961 18.4756 3.68178 23.4108C1.57752 23.8822 0 25.7608 0 28.0011C0 30.2414 1.57752 32.1199 3.68178 32.5912C4.60633 37.5108 6.97637 41.97 10.5687 45.5272C14.1316 49.0553 18.5747 51.3774 23.4652 52.2782C24.0264 54.2508 25.8462 55.7004 28 55.7004C30.1541 55.7004 31.974 54.2505 32.535 52.2776C37.4534 51.3708 41.9194 49.0275 45.4881 45.4708C49.0479 41.9229 51.3987 37.483 52.3182 32.5913C54.4225 32.1199 56 30.2414 56 28.0011ZM28 3.58301C28.7903 3.58301 29.4333 4.22187 29.4333 5.00707C29.4333 5.79227 28.7903 6.43091 28 6.43091C27.2097 6.43091 26.5667 5.79216 26.5667 5.00696C26.5667 4.22176 27.2097 3.58301 28 3.58301ZM4.7145 26.577C5.50484 26.577 6.14775 27.2159 6.14775 28.0011C6.14775 28.7863 5.50473 29.4251 4.7145 29.4251C3.92427 29.4251 3.28125 28.7863 3.28125 28.0011C3.28125 27.2159 3.92416 26.577 4.7145 26.577ZM28 52.4192C27.2097 52.4192 26.5667 51.7803 26.5667 50.9951C26.5667 50.2099 27.2097 49.5712 28 49.5712C28.7903 49.5712 29.4333 50.2099 29.4333 50.9951C29.4333 51.7803 28.7903 52.4192 28 52.4192ZM43.1718 43.1467C40.1547 46.1536 36.3996 48.161 32.2633 48.9891C31.5074 47.3954 29.8809 46.29 28 46.29C26.1192 46.29 24.4927 47.3952 23.7367 48.9889C19.6247 48.1662 15.8891 46.178 12.8775 43.1957C9.80262 40.1509 7.75983 36.3462 6.93711 32.1492C8.41881 31.3552 9.42889 29.7939 9.42889 28.0011C9.42889 26.2087 8.41903 24.6474 6.93766 23.8533C7.76333 19.6428 9.81619 15.827 12.9049 12.7793C15.9119 9.81235 19.638 7.83343 23.7366 7.01334C24.4926 8.60693 26.119 9.71216 27.9999 9.71216C29.8808 9.71216 31.5072 8.60693 32.2632 7.01323C36.3304 7.82796 40.0362 9.78665 43.0292 12.7148C46.1487 15.7667 48.2291 19.6106 49.0626 23.853C47.5809 24.6471 46.5709 26.2084 46.5709 28.0011C46.5709 29.7937 47.581 31.3551 49.0627 32.1491C48.2444 36.3221 46.2186 40.1101 43.1718 43.1467ZM51.2855 29.4251C50.4952 29.4251 49.8522 28.7863 49.8522 28.0011C49.8522 27.2159 50.4953 26.577 51.2855 26.577C52.0757 26.577 52.7188 27.2159 52.7188 28.0011C52.7188 28.7863 52.0758 29.4251 51.2855 29.4251Z" fill="#3B4A9E"/>
</g>
<defs>
<clipPath id="clip0">
<rect width="56" height="56" fill="white"/>
</clipPath>
</defs>
</svg>
