<svg width="67" height="63" viewBox="0 0 67 63" fill="none" xmlns="http://www.w3.org/2000/svg">
<path d="M22.7283 16.3376C11.9306 16.3376 1 13.7047 1 8.66881C1 3.63296 11.9306 1 22.7283 1C33.526 1 44.4566 3.63296 44.4566 8.66881C44.4566 13.7047 33.526 16.3376 22.7283 16.3376ZM22.7283 3.55627C11.0257 3.55627 3.55627 6.58545 3.55627 8.66881C3.55627 10.7522 11.0257 13.7814 22.7283 13.7814C34.4309 13.7814 41.9003 10.7522 41.9003 8.66881C41.9003 6.58545 34.4309 3.55627 22.7283 3.55627Z" fill="#3B4A9E" stroke="#3B4A9E"/>
<path d="M43.1785 26.5627C42.473 26.5627 41.9004 25.9901 41.9004 25.2845V8.66876C41.9004 7.96323 42.473 7.39062 43.1785 7.39062C43.8841 7.39062 44.4567 7.96323 44.4567 8.66876V25.2845C44.4567 25.9901 43.8841 26.5627 43.1785 26.5627Z" fill="#3B4A9E" stroke="#3B4A9E"/>
<path d="M22.7283 57.2379C11.9306 57.2379 1 54.605 1 49.5691V8.66876C1 7.96323 1.5726 7.39062 2.27814 7.39062C2.98367 7.39062 3.55627 7.96323 3.55627 8.66876V49.5691C3.55627 51.6525 11.0257 54.6816 22.7283 54.6816C25.4507 54.6816 27.9712 54.5206 30.2207 54.2087C30.9186 54.1065 31.5653 54.5973 31.6625 55.2977C31.7596 55.9981 31.2739 56.6423 30.5735 56.7394C28.2089 57.0718 25.5683 57.2379 22.7283 57.2379Z" fill="#3B4A9E" stroke="#3B4A9E"/>
<path d="M22.7283 47.0131C11.9306 47.0131 1 44.3801 1 39.3443C1 38.6388 1.5726 38.0662 2.27814 38.0662C2.98367 38.0662 3.55627 38.6388 3.55627 39.3443C3.55627 41.4277 11.0257 44.4568 22.7283 44.4568C23.4338 44.4568 24.0064 45.0294 24.0064 45.735C24.0064 46.4405 23.4338 47.0131 22.7283 47.0131Z" fill="#3B4A9E" stroke="#3B4A9E"/>
<path d="M22.7283 36.7878C11.9306 36.7878 1 34.1548 1 29.119C1 28.4134 1.5726 27.8408 2.27814 27.8408C2.98367 27.8408 3.55627 28.4134 3.55627 29.119C3.55627 31.2023 11.0257 34.2315 22.7283 34.2315C25.3434 34.2315 27.8153 34.0807 30.0776 33.7816C30.7703 33.6768 31.4171 34.1829 31.5116 34.8808C31.6037 35.5812 31.1129 36.2228 30.4125 36.3149C28.0402 36.6293 25.4558 36.7878 22.7283 36.7878Z" fill="#3B4A9E" stroke="#3B4A9E"/>
<path d="M22.7283 26.5627C11.9306 26.5627 1 23.9297 1 18.8939C1 18.1883 1.5726 17.6157 2.27814 17.6157C2.98367 17.6157 3.55627 18.1883 3.55627 18.8939C3.55627 20.9772 11.0257 24.0064 22.7283 24.0064C34.4309 24.0064 41.9003 20.9772 41.9003 18.8939C41.9003 18.1883 42.4729 17.6157 43.1785 17.6157C43.884 17.6157 44.4566 18.1883 44.4566 18.8939C44.4566 23.9297 33.526 26.5627 22.7283 26.5627Z" fill="#3B4A9E" stroke="#3B4A9E"/>
<path d="M59.2887 53.4125L65.8878 60.0101L63.7076 62.1902L57.11 55.5911C54.6552 57.559 51.6018 58.6294 48.4555 58.6249C40.801 58.6249 34.5886 52.4125 34.5886 44.758C34.5886 37.1035 40.801 30.8911 48.4555 30.8911C56.1101 30.8911 62.3224 37.1035 62.3224 44.758C62.3269 47.9043 61.2566 50.9577 59.2887 53.4125ZM56.1979 52.2693C58.1533 50.2584 59.2453 47.5629 59.2409 44.758C59.2409 38.7983 54.4137 33.9726 48.4555 33.9726C42.4958 33.9726 37.6702 38.7983 37.6702 44.758C37.6702 50.7162 42.4958 55.5434 48.4555 55.5434C51.2604 55.5478 53.9559 54.4558 55.9668 52.5004L56.1979 52.2693V52.2693Z" fill="#3B4A9E" stroke="#3B4A9E" stroke-width="0.5"/>
</svg>
