<svg viewBox="0 0 350 1106" fill="none" xmlns="http://www.w3.org/2000/svg">
<path d="M349.473 931.227C349.473 977.759 331.338 1021.5 298.375 1054.44C265.412 1087.36 221.598 1105.46 174.969 1105.46C128.366 1105.46 84.5524 1087.36 51.5632 1054.44C18.5998 1021.5 0.464844 977.759 0.464844 931.227C0.464844 888.874 15.8615 848.042 43.8132 816.264C45.234 814.665 47.6624 814.511 49.2899 815.903C50.8915 817.322 51.0465 819.747 49.6515 821.372C22.9399 851.731 8.21485 890.757 8.21485 931.227C8.21485 975.669 25.549 1017.51 57.0399 1048.97C88.5565 1080.42 130.432 1097.72 174.969 1097.72C219.532 1097.72 261.407 1080.42 292.898 1048.97C324.389 1017.51 341.723 975.695 341.723 931.227C341.723 899.578 332.811 868.806 315.967 842.264C286.388 795.604 228.522 769.32 172.567 743.862C116.095 718.171 57.6857 691.63 27.4349 643.885C9.79069 616.054 0.464844 583.864 0.464844 550.796C0.464844 504.239 18.5998 460.493 51.5632 427.58C63.8857 415.276 77.8874 404.933 93.1807 396.834C95.0665 395.828 97.4174 396.55 98.4249 398.433C99.4324 400.316 98.709 402.663 96.8232 403.669C82.2015 411.407 68.8199 421.286 57.0399 433.048C25.549 464.491 8.21485 506.302 8.21485 550.796C8.21485 582.393 17.1274 613.165 33.9707 639.759C62.9815 685.568 120.332 711.62 175.77 736.846C232.758 762.743 291.658 789.542 322.503 838.137C340.147 865.917 349.473 898.108 349.473 931.227Z" fill="#3B4A9E"/>
<path d="M37.8718 811.519C42.2118 806.773 49.5743 806.412 54.3276 810.745C59.0809 815.078 59.4426 822.429 55.1026 827.176C50.7626 831.922 43.4001 832.283 38.6467 827.949C33.8934 823.642 33.5318 816.291 37.8718 811.519Z" fill="#3B4A9E"/>
<path d="M99.8192 411.047C105.554 408.158 107.853 401.142 104.96 395.416C102.067 389.69 95.04 387.394 89.305 390.283C83.57 393.172 81.2708 400.188 84.1642 405.914C87.0575 411.64 94.0842 413.936 99.8192 411.047Z" fill="#3B4A9E"/>
<path d="M349.472 174.492C349.472 216.845 334.075 257.676 306.097 289.454C304.677 291.053 302.248 291.208 300.621 289.815C299.019 288.397 298.864 285.972 300.259 284.347C326.971 253.988 341.696 214.988 341.696 174.518C341.696 130.075 324.362 88.2379 292.871 56.7696C261.354 25.3272 219.478 8.0196 174.942 8.0196C130.379 8.0196 88.5033 25.3272 57.0125 56.7696C25.5217 88.2379 8.1875 130.049 8.1875 174.518C8.1875 206.166 17.1 236.938 33.9433 263.454C63.5483 310.115 121.389 336.424 177.318 361.857C233.79 387.522 292.173 414.089 322.45 461.859C340.094 489.639 349.446 521.829 349.446 554.922C349.446 601.48 331.311 645.226 298.347 678.139C282.925 693.537 264.997 705.764 245.105 714.482C243.142 715.333 240.868 714.456 239.99 712.496C239.137 710.535 240.016 708.266 241.979 707.389C260.992 699.057 278.12 687.373 292.871 672.645C324.362 641.202 341.696 599.391 341.696 554.897C341.696 523.274 332.783 492.528 315.914 465.96C286.877 420.125 229.553 394.073 174.115 368.873C117.152 342.976 58.2267 316.176 27.4075 267.555C9.76334 239.801 0.4375 207.611 0.4375 174.492C0.4375 127.96 18.5725 84.2141 51.5358 51.2756C84.4992 18.3629 128.312 0.255768 174.942 0.255768C221.545 0.255768 265.358 18.3629 298.347 51.2756C331.337 84.2141 349.472 127.96 349.472 174.492Z" fill="#3B4A9E"/>
<path d="M248.489 721.395C242.522 723.82 235.728 720.957 233.299 714.999C230.871 709.04 233.738 702.257 239.706 699.832C245.673 697.407 252.468 700.27 254.896 706.229C257.324 712.187 254.431 718.971 248.489 721.395Z" fill="#3B4A9E"/>
<path d="M294.86 278.491C290.52 283.237 290.882 290.614 295.635 294.922C300.388 299.255 307.777 298.894 312.091 294.148C316.431 289.402 316.069 282.025 311.316 277.718C306.562 273.384 299.174 273.745 294.86 278.491Z" fill="#3B4A9E"/>
</svg>
