<svg width="61" height="56" viewBox="0 0 61 56" fill="none" xmlns="http://www.w3.org/2000/svg">
<path d="M60.4999 45.5V0H0.766602V45.5H24.7052L22.3719 52.5H14.8833V56H46.3833V52.5H38.8947L36.5613 45.5H60.4999ZM4.2666 3.5H56.9999V42H4.2666V3.5ZM35.2052 52.5H26.0612L28.3946 45.5H32.8719L35.2052 52.5Z" fill="#3B4A9E"/>
<path d="M8.42126 19.25L18.3833 23.2347V31.0432L30.6333 35.9431L42.8833 31.0432V23.2347L46.3833 21.8347V35H49.8833V18.0652L30.6333 10.3652L8.42126 19.25ZM39.3833 28.6735L30.6333 32.1735L21.8833 28.6735V24.6347L30.6333 28.1347L39.3833 24.6347V28.6735ZM30.6333 24.3652L17.8454 19.25L30.6333 14.1347L43.4213 19.25L30.6333 24.3652Z" fill="#3B4A9E"/>
</svg>
