<svg width="50" height="50" viewBox="0 0 50 50" fill="none" xmlns="http://www.w3.org/2000/svg">
<path d="M20.8333 27.083L18.75 37.4997H22.9167V45.833L31.1979 33.333H27.0833L29.1667 27.083H20.8333Z" fill="#3B4A9E"/>
<path d="M39.466 21.0663C38.5556 13.8955 32.416 8.33301 24.9994 8.33301C19.2577 8.33301 14.2702 11.6893 11.9931 16.9788C7.5181 18.3163 4.16602 22.5393 4.16602 27.083C4.16602 32.8268 8.83893 37.4997 14.5827 37.4997V33.333C11.1368 33.333 8.33268 30.5288 8.33268 27.083C8.33268 24.1601 10.8306 21.3413 13.9014 20.8018L15.1118 20.5872L15.5119 19.4226C16.9764 15.1518 20.6139 12.4997 24.9994 12.4997C30.7431 12.4997 35.416 17.1726 35.416 22.9163V24.9997H37.4994C39.7973 24.9997 41.666 26.8684 41.666 29.1663C41.666 31.4643 39.7973 33.333 37.4994 33.333H35.416V37.4997H37.4994C42.0952 37.4997 45.8327 33.7622 45.8327 29.1663C45.8302 27.2987 45.2017 25.4857 44.0475 24.0174C42.8934 22.549 41.2802 21.51 39.466 21.0663Z" fill="#3B4A9E"/>
</svg>
