<svg width="50" height="50" viewBox="0 0 50 50" fill="none" xmlns="http://www.w3.org/2000/svg">
<path d="M34.5928 23.0163C35.8617 20.854 36.4096 18.344 36.1574 15.8496C35.7845 12.1329 33.7095 8.84753 30.3178 6.59961L28.0158 10.0704C30.347 11.6163 31.7658 13.8184 32.0116 16.2663C32.1249 17.404 31.9833 18.5526 31.597 19.6287C31.2107 20.7048 30.5894 21.6813 29.7783 22.4871L27.2949 24.9704L30.6658 25.96C39.4824 28.5434 39.5845 37.41 39.5845 37.4996H43.7512C43.7512 33.7725 41.7595 26.4892 34.5928 23.0163Z" fill="#3B4A9E"/>
<path d="M19.791 24.9997C24.3868 24.9997 28.1243 21.2622 28.1243 16.6663C28.1243 12.0705 24.3868 8.33301 19.791 8.33301C15.1952 8.33301 11.4577 12.0705 11.4577 16.6663C11.4577 21.2622 15.1952 24.9997 19.791 24.9997ZM19.791 12.4997C22.0889 12.4997 23.9577 14.3684 23.9577 16.6663C23.9577 18.9643 22.0889 20.833 19.791 20.833C17.4931 20.833 15.6243 18.9643 15.6243 16.6663C15.6243 14.3684 17.4931 12.4997 19.791 12.4997ZM22.916 27.083H16.666C9.77226 27.083 4.16602 32.6893 4.16602 39.583V41.6663H8.33268V39.583C8.33268 34.9872 12.0702 31.2497 16.666 31.2497H22.916C27.5118 31.2497 31.2493 34.9872 31.2493 39.583V41.6663H35.416V39.583C35.416 32.6893 29.8098 27.083 22.916 27.083Z" fill="#3B4A9E"/>
</svg>
