<svg width="60" height="60" viewBox="0 0 60 60" fill="none" xmlns="http://www.w3.org/2000/svg">
<path d="M30 5C23.1075 5 17.5 10.6075 17.5 17.5V22.5H15C12.2425 22.5 10 24.7425 10 27.5V50C10 52.7575 12.2425 55 15 55H45C47.7575 55 50 52.7575 50 50V27.5C50 24.7425 47.7575 22.5 45 22.5H42.5V17.5C42.5 10.6075 36.8925 5 30 5ZM22.5 17.5C22.5 13.365 25.865 10 30 10C34.135 10 37.5 13.365 37.5 17.5V22.5H22.5V17.5ZM45.005 50H32.5V44.305C33.9875 43.4375 35 41.8425 35 40C35 37.2425 32.7575 35 30 35C27.2425 35 25 37.2425 25 40C25 41.84 26.0125 43.4375 27.5 44.305V50H15V27.5H45L45.005 50Z" fill="#3B4A9E"/>
</svg>
