<svg width="50" height="50" viewBox="0 0 50 50" fill="none" xmlns="http://www.w3.org/2000/svg">
<path d="M24.9994 4.16699C13.5118 4.16699 4.16602 13.5128 4.16602 25.0003C4.16602 36.4878 13.5118 45.8337 24.9994 45.8337C36.4869 45.8337 45.8327 36.4878 45.8327 25.0003C45.8327 13.5128 36.4869 4.16699 24.9994 4.16699ZM24.9994 41.667C15.8098 41.667 8.33268 34.1899 8.33268 25.0003C8.33268 15.8107 15.8098 8.33366 24.9994 8.33366C34.1889 8.33366 41.666 15.8107 41.666 25.0003C41.666 34.1899 34.1889 41.667 24.9994 41.667Z" fill="#3B4A9E"/>
<path d="M27.0827 14.583H22.916V27.083H35.416V22.9163H27.0827V14.583Z" fill="#3B4A9E"/>
</svg>
