<?xml version="1.0" encoding="utf-8"?>
<!-- Generator: Adobe Illustrator 26.2.1, SVG Export Plug-In . SVG Version: 6.00 Build 0)  -->
<svg version="1.1" id="Layer_1" xmlns="http://www.w3.org/2000/svg" xmlns:xlink="http://www.w3.org/1999/xlink" x="0px" y="0px"
	 viewBox="0 0 300 52.48" style="enable-background:new 0 0 300 52.48;" xml:space="preserve">
<style type="text/css">
	.st0{fill:#F7C613;}
	.st1{fill:#FFFFFF;}
	.st2{fill:#414042;}
	.st3{fill:none;stroke:#000000;stroke-width:2;stroke-miterlimit:10;}
</style>
<g>
	<g>
		<path class="st0" d="M8.78,4.2h148.5c2.49,0,4.5,2.01,4.5,4.5v36c0,2.49-2.01,4.5-4.5,4.5H8.78c-2.49,0-4.5-2.01-4.5-4.5v-36
			C4.28,6.21,6.3,4.2,8.78,4.2z"/>
	</g>
	<g>
		<path class="st1" d="M46.02,18h3.22v18.62h-3.27l-9.32-13.17v13.17h-3.2V18h3.26l9.32,13.17V18z"/>
		<path class="st1" d="M62.12,36.96c-2.79,0-5.13-0.92-7-2.77c-1.87-1.85-2.81-4.14-2.81-6.88c0-2.73,0.94-5.02,2.81-6.87
			c1.87-1.85,4.2-2.77,7-2.77c2.78,0,5.11,0.92,6.99,2.77c1.87,1.85,2.81,4.14,2.81,6.87c0,2.74-0.94,5.03-2.81,6.88
			C67.23,36.03,64.9,36.96,62.12,36.96z M66.76,31.96c1.24-1.25,1.86-2.79,1.86-4.65c0-1.86-0.62-3.4-1.86-4.65
			c-1.25-1.25-2.79-1.87-4.65-1.87c-1.83,0-3.37,0.62-4.61,1.87c-1.24,1.25-1.86,2.79-1.86,4.65c0,1.86,0.62,3.4,1.86,4.65
			c1.24,1.25,2.78,1.89,4.61,1.89C63.96,33.85,65.5,33.21,66.76,31.96z"/>
		<path class="st1" d="M87.07,18h3.51l-7.5,18.62h-3.32L72.23,18h3.61l5.61,14.38L87.07,18z"/>
		<path class="st1" d="M94.83,34.81c-1.46-1.44-2.19-3.22-2.19-5.37V18h3.19v11.39c0,1.25,0.42,2.31,1.28,3.16
			c0.86,0.86,1.91,1.29,3.18,1.29c1.28,0,2.33-0.42,3.18-1.27c0.84-0.84,1.27-1.91,1.27-3.19V18h3.22v11.44
			c0,2.15-0.73,3.93-2.17,5.37c-1.46,1.44-3.28,2.15-5.48,2.15C98.11,36.96,96.29,36.24,94.83,34.81z"/>
		<path class="st1" d="M127.71,18h4.14v18.62h-3.22V23.39l-5.77,13.23h-2.27l-5.76-13.17v13.17h-3.2V18h4.18l5.97,13.68L127.71,18z"
			/>
	</g>
</g>
<g>
	<path class="st2" d="M229.61,12.96c1.44,0,2.64,0.47,3.6,1.41c0.96,0.94,1.44,2.12,1.44,3.53c0,1.41-0.48,2.59-1.44,3.53
		c-0.96,0.94-2.16,1.41-3.6,1.41h-3.89v-9.88H229.61z M229.55,20.75c0.81,0,1.48-0.27,2.02-0.81s0.8-1.22,0.8-2.03
		s-0.27-1.49-0.8-2.03c-0.53-0.54-1.21-0.81-2.02-0.81h-1.61v5.7H229.55z"/>
	<path class="st2" d="M240.1,15.05h-1.22v5.7h1.22v2.09h-4.65v-2.09h1.22v-5.7h-1.22v-2.09h4.65V15.05z"/>
	<path class="st2" d="M246.21,17.18h5.01v5.66h-1.93v-1.03c-0.72,0.8-1.78,1.2-3.18,1.2c-1.49,0-2.73-0.49-3.73-1.47
		c-1-0.98-1.5-2.19-1.5-3.65s0.5-2.67,1.5-3.65c1-0.98,2.24-1.47,3.73-1.47c1.19,0,2.24,0.32,3.16,0.97
		c0.91,0.65,1.49,1.47,1.74,2.47h-2.47c-0.23-0.4-0.56-0.72-0.99-0.95c-0.43-0.24-0.91-0.35-1.43-0.35c-0.84,0-1.54,0.28-2.1,0.85
		c-0.56,0.57-0.85,1.28-0.85,2.13s0.28,1.56,0.85,2.13c0.56,0.57,1.27,0.85,2.1,0.85c0.62,0,1.17-0.15,1.65-0.46
		c0.48-0.31,0.82-0.72,1.02-1.22h-2.58V17.18z"/>
	<path class="st2" d="M257.08,15.05h-1.22v5.7h1.22v2.09h-4.65v-2.09h1.22v-5.7h-1.22v-2.09h4.65V15.05z"/>
	<path class="st2" d="M265.19,12.96v2.09h-2.45v7.79h-2.22v-7.79h-2.45v-2.09H265.19z"/>
	<path class="st2" d="M271.97,22.84l-0.62-1.73h-4.01l-0.62,1.73h-2.38l3.71-9.88h2.62l3.72,9.88H271.97z M268.06,19.06h2.57
		l-1.29-3.65L268.06,19.06z"/>
	<path class="st2" d="M277.68,20.75h3.12v2.09h-5.34v-9.88h2.22V20.75z"/>
	<path class="st2" d="M233.23,40.02l-0.96-2.39h-4.84l-0.96,2.39h-1.41l4.02-9.88h1.57l4.02,9.88H233.23z M227.93,36.41h3.87
		l-1.94-4.85L227.93,36.41z"/>
	<path class="st2" d="M240.19,40.2c-1.47,0-2.7-0.49-3.68-1.47s-1.48-2.19-1.48-3.65s0.49-2.67,1.48-3.65s2.22-1.47,3.68-1.47
		c1.23,0,2.3,0.35,3.22,1.07c0.92,0.71,1.52,1.63,1.8,2.76h-1.4c-0.26-0.77-0.71-1.39-1.36-1.86c-0.65-0.47-1.41-0.7-2.27-0.7
		c-1.09,0-1.99,0.37-2.72,1.1c-0.73,0.73-1.09,1.65-1.09,2.75c0,1.1,0.36,2.01,1.09,2.75c0.73,0.73,1.64,1.1,2.72,1.1
		c0.86,0,1.61-0.23,2.26-0.7c0.65-0.47,1.11-1.09,1.37-1.86h1.4c-0.28,1.13-0.89,2.05-1.8,2.76
		C242.49,39.84,241.42,40.2,240.19,40.2z"/>
	<path class="st2" d="M253.66,40.02l-0.96-2.39h-4.84l-0.96,2.39h-1.41l4.02-9.88h1.57l4.02,9.88H253.66z M248.35,36.41h3.87
		l-1.94-4.85L248.35,36.41z"/>
	<path class="st2" d="M260.38,30.14c1.43,0,2.62,0.47,3.58,1.41c0.95,0.94,1.43,2.12,1.43,3.53c0,1.41-0.48,2.59-1.43,3.53
		c-0.95,0.94-2.14,1.41-3.58,1.41h-3.81v-9.88H260.38z M260.36,38.79c1.05,0,1.92-0.35,2.62-1.06s1.05-1.59,1.05-2.65
		c0-1.06-0.35-1.94-1.05-2.65c-0.7-0.71-1.58-1.06-2.62-1.06h-2.48v7.42H260.36z"/>
	<path class="st2" d="M268.49,38.79h4.22v1.23h-5.54v-9.88h5.47v1.23h-4.15v3.06h3.68v1.23h-3.68V38.79z"/>
	<path class="st2" d="M283.31,30.14h1.69v9.88h-1.3V32.3l-3.47,7.72h-0.96l-3.45-7.72v7.72h-1.31v-9.88h1.73l3.54,7.91L283.31,30.14
		z"/>
	<path class="st2" d="M294.25,30.14h1.46l-4.04,6.23v3.65h-1.3v-3.65l-4.03-6.23h1.49l3.22,4.94L294.25,30.14z"/>
</g>
<g>
	<path class="st0" d="M185.35,17.3l5.6,1.87c0.27,0.09,0.41,0.38,0.31,0.64l-2.05,5.59c-0.2,0.55,0.03,1.17,0.55,1.45l9.11,4.86
		c0.57,0.3,1.25,0.3,1.81,0l9.01-4.83c0.52-0.28,0.77-0.9,0.59-1.46l-1.82-5.64c-0.09-0.27,0.06-0.56,0.33-0.65l2.58-0.86v3.78
		c0,0.16-0.09,0.3-0.2,0.41c-0.18,0.19-0.28,0.44-0.28,0.72c0,0.59,0.47,1.06,1.06,1.06c0.59,0,1.06-0.47,1.06-1.06
		c0-0.27-0.1-0.52-0.28-0.71c-0.11-0.12-0.19-0.25-0.19-0.41v-4.18l1.69-0.56c0.32-0.11,0.32-0.55,0.01-0.66l-13.48-4.71
		c-0.63-0.22-1.31-0.22-1.94,0l-13.48,4.71C185.03,16.75,185.03,17.2,185.35,17.3z M208.65,25.16c0.09,0.28-0.03,0.59-0.29,0.73
		l-8.1,4.36c-0.28,0.15-0.62,0.15-0.91,0l-8.18-4.35c-0.26-0.14-0.38-0.45-0.28-0.72l1.8-4.9c0.1-0.27,0.39-0.41,0.66-0.32
		l5.47,1.82c0.63,0.21,1.32,0.21,1.95,0l5.63-1.88c0.27-0.09,0.56,0.06,0.65,0.33L208.65,25.16z M189.48,16.78l9.83-3.44
		c0.31-0.11,0.66-0.11,0.97,0l9.83,3.44c0.16,0.05,0.16,0.28,0,0.33l-9.82,3.27c-0.32,0.11-0.66,0.11-0.98,0l-9.82-3.27
		C189.33,17.06,189.33,16.83,189.48,16.78z"/>
	<path class="st0" d="M215.34,35.25c-0.06-0.33-0.3-0.53-0.54-0.45l-14.91,5.51c-0.16,0.05-0.33,0.05-0.49,0l-14.77-5.5
		c-0.24-0.08-0.48,0.12-0.54,0.45c-0.06,0.33,0.09,0.66,0.33,0.74l15.12,5.62c0.04,0.01,0.07,0.02,0.11,0.02
		c0.04,0,0.07-0.01,0.11-0.02l15.26-5.62C215.26,35.91,215.4,35.58,215.34,35.25z"/>
	<path class="st0" d="M212.08,31.96c-2.17-0.25-7.93-0.05-12.24,4.83c-0.08,0.09-0.22,0.09-0.29,0c-3.67-4.63-9.57-5.25-12.39-4.96
		c-0.33,0.03-0.6,0.24-0.75,0.5c-0.34,0.59-0.7,1-0.97,1.25c-0.16,0.15-0.13,0.41,0.09,0.49l14.11,5.41c0,0,0,0,0,0c0,0,0,0,0,0
		c0,0,0,0,0.01,0c0,0,0,0,0,0c0,0,0,0,0,0l14.11-5.41c0.23-0.08,0.3-0.35,0.13-0.52c-0.28-0.28-0.68-0.7-1.04-1.16
		C212.66,32.18,212.4,32,212.08,31.96z"/>
</g>
<line class="st3" x1="174.12" y1="4.2" x2="173.67" y2="49.2"/>
</svg>
