<svg width="58" height="58" viewBox="0 0 58 58" fill="none" xmlns="http://www.w3.org/2000/svg">
<path d="M39.3203 46.3398L43.2255 44.8188L43.8203 46.3458L39.9151 47.8669L39.3203 46.3398Z" fill="#3B4A9E" stroke="#3B4A9E"/>
<path d="M14.1182 46.3105L14.713 44.7834L16.2401 45.3782L15.6453 46.9053L14.1182 46.3105Z" fill="#3B4A9E" stroke="#3B4A9E"/>
<path d="M36.2666 47.5312L37.7937 46.9365L38.3885 48.4635L36.8614 49.0583L36.2666 47.5312Z" fill="#3B4A9E" stroke="#3B4A9E"/>
<path d="M17.1719 47.502L17.7666 45.9749L21.6719 47.496L21.0771 49.023L17.1719 47.502Z" fill="#3B4A9E" stroke="#3B4A9E"/>
<path d="M41.7744 12.6152L42.3692 11.0882L43.8963 11.683L43.3015 13.21L41.7744 12.6152Z" fill="#3B4A9E" stroke="#3B4A9E"/>
<path d="M19.5449 9.57617L21.0721 8.98135L21.6669 10.5085L20.1397 11.1033L19.5449 9.57617Z" fill="#3B4A9E" stroke="#3B4A9E"/>
<path d="M14.1133 11.6904L18.0185 10.1694L18.6133 11.6964L14.708 13.2174L14.1133 11.6904Z" fill="#3B4A9E" stroke="#3B4A9E"/>
<path d="M36.3447 10.5049L36.9395 8.97787L40.8447 10.4989L40.25 12.0259L36.3447 10.5049Z" fill="#3B4A9E" stroke="#3B4A9E"/>
<path d="M28.1807 37.6943H29.8192V39.3329H28.1807V37.6943Z" fill="#3B4A9E" stroke="#3B4A9E" stroke-width="1.3"/>
<path d="M33.0722 18.9961L32.4541 20.5135C34.8095 21.473 36.6754 23.387 37.5734 25.7649L39.1063 25.1858C38.0477 22.383 35.8483 20.1269 33.0722 18.9961Z" fill="#3B4A9E" stroke="#3B4A9E" stroke-width="0.5"/>
<path d="M39.8003 29.0005C39.8003 28.2916 39.7307 27.5814 39.5935 26.8896L37.9863 27.2084C38.1027 27.7954 38.1616 28.3984 38.1616 29.0005H39.8003Z" fill="#3B4A9E" stroke="#3B4A9E" stroke-width="0.5"/>
<path d="M51.2298 36.8381C49.6303 36.8381 48.1823 37.4971 47.141 38.557L41.5669 35.3388C42.5322 33.4328 43.077 31.2791 43.077 29.0004C43.077 26.7397 42.5405 24.6022 41.5894 22.7073L47.1768 19.4814C48.2152 20.5197 49.6488 21.1628 51.2297 21.1628C54.3919 21.1628 56.9646 18.5901 56.9646 15.4279C56.9646 12.2658 54.3919 9.69305 51.2297 9.69305C48.0676 9.69305 45.4949 12.2658 45.4949 15.4279C45.4949 16.4164 45.7463 17.3473 46.1885 18.16L40.7702 21.2882C38.3929 17.6723 34.3961 15.2122 29.8196 14.9483V12.4464C32.5949 12.0475 34.7352 9.65503 34.7352 6.771C34.7353 3.60885 32.1627 1.03613 29.0004 1.03613C25.8382 1.03613 23.2656 3.60885 23.2656 6.771C23.2656 9.65503 25.4058 12.0476 28.1812 12.4464V14.948C26.2245 15.0626 24.2982 15.5856 22.5646 16.4783L23.3147 17.9351C25.0838 17.0242 26.9967 16.5623 29.0003 16.5623C35.8587 16.5623 41.4384 22.1421 41.4384 29.0004C41.4384 33.1009 39.4434 36.7437 36.3737 39.0109V36.5844L31.5524 32.8383L33.6284 30.5235L33.6283 27.2616C33.6283 26.0297 33.1458 24.8685 32.2696 23.9922C31.3934 23.1159 30.2324 22.6334 29.0003 22.6334C26.4485 22.6334 24.3722 24.7097 24.3722 27.2616V30.5235L26.4482 32.8383L21.627 36.5844V39.0109C18.5573 36.7437 16.5623 33.1009 16.5623 29.0004C16.5623 24.8878 18.5931 21.0453 21.9948 18.722L21.0707 17.3689C19.5218 18.4268 18.2248 19.7635 17.2269 21.286L11.8123 18.1599C12.2545 17.3472 12.5059 16.4164 12.5059 15.4279C12.5059 12.2658 9.93325 9.69305 6.771 9.69305C3.60874 9.69305 1.03613 12.2658 1.03613 15.4279C1.03613 18.5901 3.60874 21.1628 6.771 21.1628C8.35196 21.1628 9.78568 20.5197 10.8241 19.4813L16.4106 22.7067C15.4471 24.6332 14.9239 26.7817 14.9239 29.0004C14.9239 31.2791 15.4688 33.4328 16.4341 35.3388L10.86 38.5571C9.81867 37.4971 8.37064 36.8381 6.771 36.8381C3.60874 36.8381 1.03613 39.4108 1.03613 42.5729C1.03613 45.7351 3.60874 48.3078 6.771 48.3078C9.93325 48.3078 12.5059 45.7351 12.5059 42.5729C12.5059 41.6025 12.2627 40.688 11.8354 39.8858L17.2584 36.7548C19.639 40.3477 23.6225 42.7897 28.1812 43.0526V45.5544C25.4058 45.9532 23.2656 48.3458 23.2656 51.2298C23.2656 54.392 25.8382 56.9647 29.0004 56.9647C32.1626 56.9647 34.7353 54.392 34.7353 51.2298C34.7353 48.3459 32.595 45.9533 29.8197 45.5544V43.0526C34.3784 42.7897 38.3619 40.3477 40.7426 36.7548L46.1656 39.8857C45.7382 40.6879 45.495 41.6024 45.495 42.5729C45.495 45.7351 48.0677 48.3078 51.2298 48.3078C54.392 48.3078 56.9647 45.7351 56.9647 42.5729C56.9647 39.4108 54.3921 36.8381 51.2298 36.8381ZM51.2298 11.3316C53.4886 11.3316 55.3262 13.1691 55.3262 15.4279C55.3262 17.6867 53.4886 19.5242 51.2298 19.5242C48.9711 19.5242 47.1335 17.6867 47.1335 15.4279C47.1335 13.1691 48.9712 11.3316 51.2298 11.3316ZM24.9041 6.771C24.9041 4.51222 26.7416 2.67467 29.0004 2.67467C31.2592 2.67467 33.0968 4.51222 33.0968 6.771C33.0968 9.02977 31.2592 10.8673 29.0004 10.8673C26.7416 10.8673 24.9041 9.02977 24.9041 6.771ZM6.771 19.5242C4.51222 19.5242 2.67467 17.6867 2.67467 15.4279C2.67467 13.1691 4.51222 11.3316 6.771 11.3316C9.02977 11.3316 10.8673 13.1692 10.8673 15.4279C10.8673 17.6866 9.02977 19.5242 6.771 19.5242ZM6.771 46.6693C4.51222 46.6693 2.67467 44.8317 2.67467 42.5729C2.67467 40.3142 4.51222 38.4766 6.771 38.4766C9.02977 38.4766 10.8673 40.3143 10.8673 42.5729C10.8673 44.8316 9.02977 46.6693 6.771 46.6693ZM26.0109 27.2615C26.0109 25.6129 27.3519 24.2718 29.0004 24.2718C29.7948 24.2718 30.5444 24.5839 31.1112 25.1507C31.678 25.7176 31.99 26.4671 31.99 27.2615L31.9901 29.8964L29.99 32.1264H28.011L26.0109 29.8964V27.2615ZM23.2656 37.3862L27.926 33.7651H30.0747L34.7352 37.3862V40.0351C33.0181 40.9311 31.0675 41.4386 29.0003 41.4386C26.9331 41.4386 24.9825 40.9311 23.2654 40.0351V37.3862H23.2656ZM33.0968 51.2298C33.0968 53.4886 31.2592 55.3262 29.0004 55.3262C26.7416 55.3262 24.9041 53.4886 24.9041 51.2298C24.9041 48.9711 26.7418 47.1335 29.0004 47.1335C31.2591 47.1335 33.0968 48.9712 33.0968 51.2298ZM51.2298 46.6693C48.9711 46.6693 47.1335 44.8317 47.1335 42.5729C47.1335 40.3142 48.9711 38.4766 51.2298 38.4766C53.4886 38.4766 55.3262 40.3142 55.3262 42.5729C55.3262 44.8317 53.4886 46.6693 51.2298 46.6693Z" fill="#3B4A9E" stroke="#3B4A9E" stroke-width="1.3"/>
<path d="M5.95215 26.8975H7.59068V34.3801H5.95215V26.8975Z" fill="#3B4A9E" stroke="#3B4A9E"/>
<path d="M5.95215 23.6201H7.59068V25.2586H5.95215V23.6201Z" fill="#3B4A9E" stroke="#3B4A9E"/>
<path d="M50.4102 32.7422H52.0487V34.3807H50.4102V32.7422Z" fill="#3B4A9E" stroke="#3B4A9E"/>
<path d="M50.4102 23.6201H52.0487V31.1027H50.4102V23.6201Z" fill="#3B4A9E" stroke="#3B4A9E"/>
</svg>
