<svg width="32" height="32" viewBox="0 0 32 32" fill="none" xmlns="http://www.w3.org/2000/svg">
<path fill-rule="evenodd" clip-rule="evenodd" d="M16 5C22.0751 5 27 9.92487 27 16C27 22.0751 22.0751 27 16 27C9.92487 27 5 22.0751 5 16C5 9.92487 9.92487 5 16 5ZM29 16C29 8.8203 23.1797 3 16 3C8.8203 3 3 8.8203 3 16C3 23.1797 8.8203 29 16 29C23.1797 29 29 23.1797 29 16Z" fill="black"/>
<path fill-rule="evenodd" clip-rule="evenodd" d="M13.2567 10.831C12.8872 11.2416 12.9205 11.8738 13.331 12.2433L17.5052 16L13.331 19.7567C12.9205 20.1262 12.8872 20.7585 13.2567 21.169C13.6262 21.5795 14.2585 21.6128 14.669 21.2433L19.669 16.7433C19.8797 16.5537 20 16.2835 20 16C20 15.7165 19.8797 15.4464 19.669 15.2567L14.669 10.7567C14.2585 10.3873 13.6262 10.4205 13.2567 10.831Z" fill="black"/>
</svg>
