<svg id="Layer_1" data-name="Layer 1" xmlns="http://www.w3.org/2000/svg" viewBox="0 0 646.16 560">
  <defs>
    <style>
      .cls-1, .cls-2 {
        fill: #f8c603;
      }

      .cls-2 {
        fill-rule: evenodd;
      }
    </style>
  </defs>
  <title>tech</title>
  <g>
    <path class="cls-1" d="M70,21.54A21.54,21.54,0,0,0,48.46,43.08V516.92A21.54,21.54,0,0,0,70,538.46H630a21.54,21.54,0,0,0,21.54-21.54V43.08A21.54,21.54,0,0,0,630,21.54ZM70,0H630a43.08,43.08,0,0,1,43.08,43.08V516.92A43.08,43.08,0,0,1,630,560H70a43.08,43.08,0,0,1-43.08-43.08V43.08A43.08,43.08,0,0,1,70,0Z" transform="translate(-26.92 0)"/>
    <path class="cls-2" d="M48.46,107.69H651.54v21.54H48.46Z" transform="translate(-26.92 0)"/>
    <path class="cls-2" d="M630,64.62a21.54,21.54,0,1,1-21.54-21.54A21.53,21.53,0,0,1,630,64.62" transform="translate(-26.92 0)"/>
    <path class="cls-2" d="M565.38,64.62a21.54,21.54,0,1,1-21.53-21.54,21.53,21.53,0,0,1,21.53,21.54" transform="translate(-26.92 0)"/>
    <path class="cls-2" d="M500.77,64.62a21.54,21.54,0,1,1-21.54-21.54,21.53,21.53,0,0,1,21.54,21.54" transform="translate(-26.92 0)"/>
    <path class="cls-1" d="M253,409.34a15.08,15.08,0,0,1-21.32,21.32l-86.16-86.15a15.1,15.1,0,0,1,0-21.33L231.65,237A15.08,15.08,0,1,1,253,258.35l-75.49,75.5Z" transform="translate(-26.92 0)"/>
    <path class="cls-1" d="M447,258.35A15.08,15.08,0,1,1,468.35,237l86.16,86.15a15.1,15.1,0,0,1,0,21.33l-86.16,86.15A15.08,15.08,0,0,1,447,409.34l75.49-75.49Z" transform="translate(-26.92 0)"/>
    <path class="cls-1" d="M321.42,488.76a15.08,15.08,0,1,1-29-8.29l86.15-301.54a15.08,15.08,0,0,1,29,8.29Z" transform="translate(-26.92 0)"/>
  </g>
</svg>
