<svg width="56" height="56" viewBox="0 0 56 56" fill="none" xmlns="http://www.w3.org/2000/svg">
<g clip-path="url(#clip0)">
<path d="M49.9844 36.2827C47.2361 36.2827 44.9142 38.1358 44.198 40.6577H38.3906V34.2532H44.3202C50.7605 34.2532 56 29.0137 56 22.5734C56 17.4097 52.5752 12.8735 47.7133 11.396C46.2436 5.51122 40.9315 1.29054 34.7793 1.29054C32.3944 1.29054 30.1097 1.90556 28.0935 3.08057C25.9582 1.12779 23.1583 0.0307617 20.2164 0.0307617C13.9063 0.0307617 8.7488 5.06103 8.54295 11.3219C3.54878 12.7178 0 17.2905 0 22.5734C0 29.0137 5.2395 34.2532 11.6798 34.2532H17.6094V40.6577H11.802C11.0859 38.1358 8.76389 36.2827 6.01562 36.2827C2.69861 36.2827 0 38.9813 0 42.2983C0 45.6153 2.69861 48.3139 6.01562 48.3139C8.76389 48.3139 11.0858 46.4608 11.802 43.9389H19.25C20.1561 43.9389 20.8906 43.2044 20.8906 42.2983V34.2532H26.3594V44.1682C23.8375 44.8843 21.9844 47.2063 21.9844 49.9545C21.9844 53.2716 24.683 55.9702 28 55.9702C31.317 55.9702 34.0156 53.2716 34.0156 49.9545C34.0156 47.2063 32.1625 44.8844 29.6406 44.1682V34.2532H35.1094V42.2983C35.1094 43.2044 35.8439 43.9389 36.75 43.9389H44.198C44.9141 46.4608 47.2361 48.3139 49.9844 48.3139C53.3014 48.3139 56 45.6153 56 42.2983C56 38.9813 53.3014 36.2827 49.9844 36.2827ZM6.01562 45.0327C4.50789 45.0327 3.28125 43.806 3.28125 42.2983C3.28125 40.7906 4.50789 39.5639 6.01562 39.5639C7.52336 39.5639 8.75 40.7906 8.75 42.2983C8.75 43.806 7.52336 45.0327 6.01562 45.0327ZM30.7344 49.9545C30.7344 51.4623 29.5077 52.6889 28 52.6889C26.4923 52.6889 25.2656 51.4623 25.2656 49.9545C25.2656 48.4468 26.4923 47.2202 28 47.2202C29.5077 47.2202 30.7344 48.4468 30.7344 49.9545ZM11.6798 30.972C7.04889 30.972 3.28125 27.2044 3.28125 22.5734C3.28125 18.4343 6.36639 14.8618 10.4573 14.2635C11.3206 14.1373 11.934 13.3575 11.8535 12.4888C11.8298 12.2325 11.8177 11.9707 11.8177 11.7105C11.8177 7.07965 15.5854 3.31212 20.2163 3.31212C22.6871 3.31212 25.0171 4.38618 26.6087 6.2589C27.1675 6.91636 28.14 7.02858 28.834 6.51583C30.5547 5.24401 32.6105 4.57179 34.7792 4.57179C39.7697 4.57179 43.92 8.23356 44.6958 12.997C44.8055 13.6705 45.3207 14.2058 45.9896 14.3412C49.8887 15.1305 52.7186 18.5926 52.7186 22.5734C52.7186 27.2044 48.951 30.972 44.3201 30.972H11.6798ZM49.9844 45.0327C48.4766 45.0327 47.25 43.806 47.25 42.2983C47.25 40.7906 48.4766 39.5639 49.9844 39.5639C51.4921 39.5639 52.7188 40.7906 52.7188 42.2983C52.7188 43.806 51.4921 45.0327 49.9844 45.0327Z" fill="#3B4A9E"/>
</g>
<defs>
<clipPath id="clip0">
<rect width="56" height="56" fill="white"/>
</clipPath>
</defs>
</svg>
