<svg width="54" height="58" viewBox="0 0 54 58" fill="none" xmlns="http://www.w3.org/2000/svg">
<path d="M51.921 12.7215C49.4767 9.46288 44.0213 8.5621 36.8841 10.2115C36.7311 9.84462 36.573 9.48423 36.41 9.13318C36.988 8.50882 37.3353 7.70565 37.3943 6.85684C37.4533 6.00803 37.2204 5.16456 36.7343 4.46625C36.2482 3.76794 35.538 3.25674 34.7215 3.01739C33.905 2.77805 33.0312 2.82494 32.245 3.15028C30.6445 1.7245 28.9292 1 27.1375 1C25.0796 1 23.1259 1.94932 21.3307 3.82158C19.8269 5.38982 18.5041 7.538 17.3905 10.2114C10.2533 8.56222 4.79812 9.463 2.35407 12.7214C-0.425976 16.4272 1.16442 22.4774 6.59689 29C6.30056 29.3558 6.01367 29.7124 5.73624 30.0698C4.94828 29.8503 4.10999 29.8958 3.35041 30.1993C2.59084 30.5029 1.95208 31.0476 1.53247 31.7498C1.11285 32.4519 0.935637 33.2725 1.0281 34.0853C1.12057 34.898 1.47759 35.6579 2.04421 36.2478C0.555541 39.9048 0.658441 43.0168 2.35396 45.2778C3.99826 47.4698 7.00406 48.5953 10.9686 48.5952C12.8976 48.5952 15.0544 48.3277 17.3905 47.7878C18.5039 50.4612 19.8269 52.6095 21.3307 54.1777C23.1259 56.0507 25.0796 57 27.1375 57C29.1953 57 31.149 56.0507 32.9442 54.1784C34.4478 52.6103 35.7707 50.4625 36.884 47.7894C37.3833 47.9047 37.8764 48.0079 38.3632 48.0988C38.4663 48.9775 38.8779 49.791 39.5249 50.3944C40.1719 50.9978 41.0122 51.3518 41.8959 51.3933C42.7796 51.4349 43.6493 51.1612 44.3501 50.6212C45.0508 50.0812 45.537 49.3098 45.722 48.4447C48.5103 48.066 50.6453 46.9807 51.9208 45.2786C54.7008 41.5729 53.1108 35.5227 47.6783 29C53.1106 22.4772 54.7008 16.4271 51.921 12.7215ZM50.4276 13.8415C52.5902 16.7242 51.0548 21.9312 46.434 27.5725C44.3753 25.3309 42.1316 23.2666 39.7266 21.4015C39.2882 18.005 38.5454 14.7761 37.5593 11.9729C43.7319 10.5962 48.502 11.2744 50.4276 13.8416V13.8415ZM35.7393 45.5731C33.5442 44.9606 31.3953 44.1931 29.3089 43.2765C31.3277 42.2344 33.2916 41.0889 35.1926 39.8447C36.0121 39.3088 36.8167 38.757 37.6062 38.1893C37.2038 40.701 36.5792 43.172 35.7398 45.5732L35.7393 45.5731ZM18.5347 45.5731C17.6952 43.1719 17.0705 40.7008 16.668 38.1891C17.4558 38.755 18.2603 39.3068 19.0817 39.8446C20.9827 41.0889 22.9466 42.2343 24.9655 43.2765C22.879 44.1931 20.7302 44.9606 18.5352 45.5732L18.5347 45.5731ZM18.5347 12.4267C20.7298 13.0392 22.8787 13.8066 24.9651 14.7233C22.9463 15.7654 20.9824 16.9108 19.0814 18.155C18.2618 18.691 17.4572 19.2428 16.6678 19.8105C17.0705 17.2989 17.6954 14.8279 18.5352 12.4268L18.5347 12.4267ZM20.1029 38.2823C18.7944 37.4267 17.5199 36.5255 16.3075 35.6004C15.8135 31.2139 15.8135 26.7858 16.3075 22.3994C17.5199 21.4743 18.7945 20.5729 20.1029 19.7173C22.3607 18.2386 24.7103 16.9052 27.1375 15.7252C29.5645 16.9053 31.914 18.2387 34.1715 19.7175C35.4801 20.5732 36.7545 21.4744 37.9669 22.3995C38.2147 24.5909 38.3384 26.7946 38.3375 29C38.3385 31.2054 38.2148 33.4091 37.9669 35.6005C36.7545 36.5256 35.4799 37.427 34.1715 38.2826C31.914 39.7613 29.5645 41.0947 27.1375 42.2748C24.7104 41.0947 22.3609 39.7613 20.1034 38.2825L20.1029 38.2823ZM14.2737 33.9786C12.4216 32.4455 10.6816 30.7817 9.06707 29C10.6819 27.2182 12.4221 25.5542 14.2743 24.0207C14.1401 25.659 14.0708 27.3256 14.0708 29C14.0708 30.6744 14.1401 32.3404 14.2741 33.9787L14.2737 33.9786ZM35.7398 12.4268C36.5793 14.828 37.2039 17.299 37.6064 19.8108C36.8187 19.2449 36.0141 18.6931 35.1927 18.1552C33.2917 16.911 31.3279 15.7655 29.309 14.7234C31.3956 13.8068 33.5446 13.0393 35.7398 12.4268V12.4268ZM40.0008 24.0212C41.853 25.5545 43.5932 27.2183 45.2078 29C43.593 30.7818 41.8529 32.4458 40.0007 33.9793C40.1348 32.341 40.2041 30.6744 40.2041 29C40.2041 27.3256 40.1348 25.6596 40.0008 24.0212ZM35.5375 6.6C35.5375 6.96919 35.428 7.33009 35.2229 7.63706C35.0178 7.94404 34.7262 8.18329 34.3851 8.32458C34.044 8.46586 33.6687 8.50283 33.3066 8.4308C32.9445 8.35877 32.6119 8.18099 32.3509 7.91993C32.0898 7.65887 31.912 7.32627 31.84 6.96417C31.768 6.60207 31.8049 6.22675 31.9462 5.88566C32.0875 5.54457 32.3268 5.25304 32.6337 5.04792C32.9407 4.84281 33.3016 4.73333 33.6708 4.73333C34.1657 4.73392 34.6401 4.93077 34.9901 5.28072C35.34 5.63066 35.5369 6.10511 35.5375 6.6V6.6ZM27.1375 2.86667C28.3587 2.86667 29.5631 3.35177 30.7275 4.30738C30.2362 4.93718 29.9599 5.70804 29.9394 6.50657C29.9189 7.3051 30.1552 8.08913 30.6136 8.74332C31.0719 9.39751 31.7282 9.88732 32.4857 10.1407C33.2433 10.3941 34.0621 10.3976 34.8218 10.1509C34.9007 10.325 34.9785 10.5012 35.0552 10.6794C32.3392 11.4543 29.6912 12.4499 27.1375 13.6564C24.5834 12.4496 21.9349 11.4538 19.2185 10.6788C21.3464 5.69887 24.2014 2.86667 27.1375 2.86667ZM3.84729 13.8415C5.77287 11.2748 10.5428 10.5961 16.7156 11.973C15.7298 14.7758 14.987 18.0039 14.5485 21.4004C12.1436 23.266 9.89986 25.3305 7.84091 27.5721C3.22009 21.9314 1.68464 16.7243 3.84729 13.8415ZM4.73746 31.8C5.10665 31.8 5.46755 31.9095 5.77452 32.1146C6.08149 32.3197 6.32075 32.6112 6.46203 32.9523C6.60332 33.2934 6.64028 33.6687 6.56826 34.0308C6.49623 34.3929 6.31845 34.7255 6.05739 34.9866C5.79633 35.2477 5.46372 35.4254 5.10163 35.4975C4.73953 35.5695 4.3642 35.5325 4.02311 35.3912C3.68203 35.25 3.39049 35.0107 3.18538 34.7037C2.98027 34.3968 2.87079 34.0359 2.87079 33.6667C2.87138 33.1718 3.06823 32.6973 3.41817 32.3474C3.76811 31.9974 4.24257 31.8006 4.73746 31.8ZM3.84741 44.1586C2.33576 42.1424 2.82074 39.422 3.65864 37.2403C4.45601 37.4814 5.31115 37.4489 6.08785 37.1477C6.86456 36.8466 7.51816 36.2942 7.94457 35.5786C8.37098 34.8629 8.54566 34.0252 8.44081 33.1988C8.33595 32.3724 7.95758 31.6048 7.36596 31.0183C7.52074 30.8212 7.67897 30.6241 7.84067 30.4271C9.89937 32.6689 12.1432 34.7334 14.5483 36.5987C14.9867 39.9952 15.7296 43.2241 16.7156 46.0274C10.5431 47.4039 5.77299 46.7256 3.84741 44.1586ZM27.1375 55.1333C24.2014 55.1333 21.3464 52.3011 19.2185 47.3211C21.9349 46.5462 24.5834 45.5504 27.1375 44.3436C29.6916 45.5503 32.3401 46.5461 35.0564 47.3212C32.9286 52.3011 30.0735 55.1333 27.1375 55.1333ZM42.0708 49.5333C41.7016 49.5333 41.3407 49.4239 41.0337 49.2187C40.7268 49.0136 40.4875 48.7221 40.3462 48.381C40.2049 48.0399 40.168 47.6646 40.24 47.3025C40.312 46.9404 40.4898 46.6078 40.7509 46.3467C41.0119 46.0857 41.3445 45.9079 41.7066 45.8359C42.0687 45.7638 42.444 45.8008 42.7851 45.9421C43.1262 46.0834 43.4178 46.3226 43.6229 46.6296C43.828 46.9366 43.9375 47.2975 43.9375 47.6667C43.9369 48.1616 43.74 48.636 43.3901 48.986C43.0401 49.3359 42.5657 49.5327 42.0708 49.5333V49.5333ZM50.4273 44.1589C49.4823 45.42 47.8365 46.2455 45.6401 46.5722C45.4144 45.8368 44.967 45.189 44.3591 44.7176C43.7512 44.2461 43.0124 43.974 42.244 43.9383C41.4755 43.9027 40.7148 44.1053 40.0659 44.5185C39.417 44.9317 38.9115 45.5353 38.6187 46.2467C38.2699 46.1805 37.9168 46.1071 37.5594 46.0268C38.5452 43.2241 39.2879 39.996 39.7264 36.5996C42.1313 34.734 44.3751 32.6695 46.434 30.4279C51.0548 36.0686 52.5902 41.2757 50.4273 44.1589Z" fill="#3B4A9E" stroke="#3B4A9E" stroke-width="1.3"/>
<path fill-rule="evenodd" clip-rule="evenodd" d="M24.8262 23.6571C23.0619 24.4151 21.7506 26.026 21.4115 27.971H23.4567C23.6202 26.4504 24.0881 24.9839 24.8262 23.6571ZM29.386 23.6571C30.1241 24.9839 30.592 26.4504 30.7555 27.971H32.8007C32.4616 26.026 31.1503 24.4151 29.386 23.6571ZM28.7415 27.971C28.5441 26.4623 27.9824 25.0246 27.1061 23.7826C26.2298 25.0246 25.6681 26.4623 25.4707 27.971H28.7415ZM25.4707 29.971H28.7415C28.5441 31.4796 27.9824 32.9173 27.1061 34.1593C26.2298 32.9173 25.6681 31.4796 25.4707 29.971ZM23.4567 29.971H21.4115C21.7506 31.9159 23.0619 33.5268 24.8262 34.2848C24.0881 32.958 23.6202 31.4915 23.4567 29.971ZM29.386 34.2848C30.1241 32.958 30.592 31.4915 30.7555 29.971H32.8007C32.4616 31.9159 31.1503 33.5268 29.386 34.2848ZM27.1061 36.7518C31.4033 36.7518 34.8869 33.2682 34.8869 28.971C34.8869 24.6737 31.4033 21.1901 27.1061 21.1901C22.8089 21.1901 19.3253 24.6737 19.3253 28.971C19.3253 33.2682 22.8089 36.7518 27.1061 36.7518Z" fill="#3B4A9E"/>
</svg>
