<svg viewBox="0 0 1106 350" fill="none" xmlns="http://www.w3.org/2000/svg">
<path d="M174.588 349.378C128.056 349.378 84.3099 331.243 51.3714 298.279C18.4587 265.316 0.351562 221.503 0.351562 174.873C0.351562 128.27 18.4587 84.4567 51.3714 51.4675C84.3099 18.5041 128.056 0.369141 174.588 0.369141C216.941 0.369141 257.772 15.7658 289.55 43.7175C291.149 45.1383 291.304 47.5667 289.911 49.1942C288.492 50.7958 286.068 50.9508 284.443 49.5558C254.084 22.8441 215.058 8.11914 174.588 8.11914C130.145 8.11914 88.3079 25.4533 56.8397 56.9442C25.3972 88.4608 8.08966 130.337 8.08966 174.873C8.08966 219.436 25.3972 261.312 56.8397 292.803C88.3079 324.293 130.119 341.628 174.588 341.628C206.237 341.628 237.008 332.715 263.55 315.872C310.211 286.293 336.494 228.426 361.953 172.471C387.643 115.999 414.185 57.59 461.929 27.3392C489.76 9.69498 521.951 0.369141 555.018 0.369141C601.576 0.369141 645.322 18.5041 678.235 51.4675C690.538 63.79 700.881 77.7917 708.981 93.085C709.986 94.9708 709.264 97.3217 707.381 98.3292C705.498 99.3367 703.151 98.6133 702.145 96.7275C694.407 82.1058 684.528 68.7242 672.766 56.9442C641.324 25.4533 599.512 8.11914 555.018 8.11914C523.421 8.11914 492.649 17.0316 466.056 33.875C420.246 62.8858 394.195 120.236 368.969 175.674C343.072 232.663 316.272 291.563 267.677 322.408C239.897 340.052 207.707 349.378 174.588 349.378Z" fill="#3B4A9E"/>
<path d="M294.296 37.7761C299.042 42.1161 299.403 49.4786 295.07 54.2319C290.736 58.9852 283.385 59.3469 278.639 55.0069C273.893 50.6669 273.532 43.3044 277.865 38.551C282.173 33.7977 289.524 33.436 294.296 37.7761Z" fill="#3B4A9E"/>
<path d="M694.768 99.7244C697.657 105.459 704.672 107.759 710.399 104.865C716.125 101.972 718.42 94.9453 715.532 89.2103C712.643 83.4753 705.627 81.1761 699.901 84.0695C694.174 86.9628 691.879 93.9894 694.768 99.7244Z" fill="#3B4A9E"/>
<path d="M931.323 349.376C888.969 349.376 848.138 333.979 816.36 306.002C814.761 304.581 814.606 302.153 815.999 300.525C817.418 298.923 819.842 298.768 821.467 300.163C851.827 326.875 890.827 341.6 931.297 341.6C975.739 341.6 1017.58 324.266 1049.04 292.775C1080.49 261.258 1097.79 219.383 1097.79 174.846C1097.79 130.283 1080.49 88.4076 1049.04 56.9168C1017.58 25.426 975.765 8.0918 931.297 8.0918C899.648 8.0918 868.876 17.0043 842.36 33.8476C795.7 63.4526 769.39 121.293 743.958 177.223C718.293 233.694 691.725 292.078 643.956 322.354C616.176 339.998 583.985 349.35 550.892 349.35C504.335 349.35 460.589 331.215 427.676 298.252C412.277 282.829 400.051 264.901 391.333 245.009C390.481 243.046 391.358 240.773 393.319 239.894C395.279 239.042 397.549 239.92 398.426 241.883C406.757 260.897 418.442 278.024 433.17 292.775C464.612 324.266 506.424 341.6 550.918 341.6C582.541 341.6 613.287 332.688 639.854 315.818C685.69 286.782 711.741 229.458 736.942 174.019C762.839 117.057 789.638 58.131 838.259 27.3118C866.013 9.66764 898.204 0.341797 931.323 0.341797C977.854 0.341797 1021.6 18.4768 1054.54 51.4401C1087.45 84.4035 1105.56 128.217 1105.56 174.846C1105.56 221.449 1087.45 265.263 1054.54 298.252C1021.6 331.241 977.854 349.376 931.323 349.376Z" fill="#3B4A9E"/>
<path d="M384.419 248.394C381.994 242.426 384.857 235.632 390.816 233.204C396.774 230.775 403.558 233.643 405.982 239.61C408.407 245.578 405.544 252.372 399.586 254.8C393.627 257.229 386.844 254.335 384.419 248.394Z" fill="#3B4A9E"/>
<path d="M827.323 294.764C822.577 290.424 815.2 290.786 810.892 295.539C806.559 300.293 806.92 307.681 811.666 311.995C816.412 316.335 823.789 315.973 828.097 311.22C832.43 306.467 832.069 299.078 827.323 294.764Z" fill="#3B4A9E"/>
</svg>
