<svg width="62" height="62" viewBox="0 0 62 62" fill="none" xmlns="http://www.w3.org/2000/svg">
<path d="M3.75391 14.6523V47.3477H21.918V51.6742L14.6523 55.307V62H18.2852V57.5523L25.5508 53.9195V47.3477H29.1836V62H32.8164V47.3477H36.4492V53.9195L43.7148 57.5523V62H47.3477V55.307L40.082 51.6742V47.3477H58.2461V14.6523H40.082V10.3092L47.3477 6.55529V0H43.7148V4.34315L36.4492 8.09705V14.6523H32.8164V0H29.1836V14.6523H25.5508V8.09705L18.2852 4.34315V0H14.6523V6.55529L21.918 10.3092V14.6523H3.75391ZM54.6133 43.7148H7.38672V18.2852H54.6133V43.7148Z" fill="#3B4A9E"/>
<path d="M25.5508 21.918H11.0195V32.8164H25.5508V21.918ZM21.918 29.1836H14.6523V25.5508H21.918V29.1836Z" fill="#3B4A9E"/>
<path d="M11.0195 36.4492H18.2852V40.082H11.0195V36.4492Z" fill="#3B4A9E"/>
<path d="M21.918 36.4492H29.1836V40.082H21.918V36.4492Z" fill="#3B4A9E"/>
<path d="M32.8164 36.4492H40.082V40.082H32.8164V36.4492Z" fill="#3B4A9E"/>
<path d="M43.7148 36.4492H50.9805V40.082H43.7148V36.4492Z" fill="#3B4A9E"/>
<path d="M32.8164 21.918H50.9805V25.5508H32.8164V21.918Z" fill="#3B4A9E"/>
</svg>
