<svg id="Layer_1" data-name="Layer 1" xmlns="http://www.w3.org/2000/svg" viewBox="0 0 560.02 560.02">
  <defs>
    <style>
      .cls-1 {
        fill: #f8c603;
      }
    </style>
  </defs>
  <title>ms-office</title>
  <path class="cls-1" d="M17.43,0A17.5,17.5,0,0,0,0,17.57v220.9a17.52,17.52,0,0,0,17.43,17.47h221a17.52,17.52,0,0,0,17.43-17.47V17.57A17.5,17.5,0,0,0,238.47,0Zm304.1,0h0A17.5,17.5,0,0,0,304.1,17.57v220.9a17.52,17.52,0,0,0,17.43,17.47H542.44A17.5,17.5,0,0,0,560,238.47V17.57A17.5,17.5,0,0,0,542.44,0ZM35,35H220.9V220.9H35Zm304.1,0H525V220.9H339.1ZM17.44,304.09A17.5,17.5,0,0,0,0,321.56v221A17.48,17.48,0,0,0,17.44,560h221a17.48,17.48,0,0,0,17.43-17.46v-221a17.5,17.5,0,0,0-17.43-17.47Zm304.1,0h0a17.5,17.5,0,0,0-17.43,17.47v221A17.48,17.48,0,0,0,321.54,560H542.45A17.51,17.51,0,0,0,560,542.56v-221a17.51,17.51,0,0,0-17.57-17.47ZM35,339.13h185.9V525H35Zm304.1,0H525V525H339.11Z"/>
</svg>
