<svg width="61" height="51" viewBox="0 0 61 51" fill="none" xmlns="http://www.w3.org/2000/svg">
<g clip-path="url(#clip0)">
<path d="M61 8.27483V35.9528C61 39.9649 58.0147 43.295 54.1486 43.834V41.085C56.5137 40.5746 58.2902 38.4685 58.2902 35.9528V8.27483C58.2902 5.37982 55.9356 3.02527 53.0406 3.02527H7.96091C5.0659 3.02527 2.70984 5.37982 2.70984 8.27483V35.9528C2.70984 38.4489 4.4607 40.543 6.79869 41.0729V43.8264C2.95824 43.2634 0 39.9468 0 35.9528V8.27483C0 3.8864 3.57097 0.31543 7.96091 0.31543H53.0406C57.429 0.31543 61 3.8864 61 8.27483Z" fill="#3B4A9E"/>
<path d="M46.781 50.8751C44.8781 50.8751 43.335 49.332 43.335 47.4291V14.5512C43.335 12.6483 44.8781 11.1052 46.781 11.1052C48.6839 11.1052 50.227 12.6483 50.227 14.5512V47.4291C50.227 49.332 48.6839 50.8751 46.781 50.8751Z" fill="#3B4A9E"/>
<path d="M35.9611 50.8749C34.0582 50.8749 32.5151 49.3318 32.5151 47.4289V28.2297C32.5151 26.3268 34.0582 24.7837 35.9611 24.7837C37.8641 24.7837 39.4072 26.3268 39.4072 28.2297V47.4289C39.4072 49.3318 37.8641 50.8749 35.9611 50.8749Z" fill="#3B4A9E"/>
<path d="M25.0796 50.8751C23.1766 50.8751 21.6335 49.332 21.6335 47.4291V22.7771C21.6335 20.8742 23.1766 19.3311 25.0796 19.3311C26.9825 19.3311 28.5256 20.8742 28.5256 22.7771V47.4291C28.5256 49.332 26.9825 50.8751 25.0796 50.8751Z" fill="#3B4A9E"/>
<path d="M14.1997 50.8749C12.2968 50.8749 10.7537 49.3318 10.7537 47.4289V35.1067C10.7537 33.2037 12.2968 31.6606 14.1997 31.6606C16.1026 31.6606 17.6457 33.2037 17.6457 35.1067V47.4289C17.6457 49.3318 16.1026 50.8749 14.1997 50.8749Z" fill="#3B4A9E"/>
</g>
<defs>
<clipPath id="clip0">
<rect width="61" height="50.5596" fill="white" transform="translate(0 0.31543)"/>
</clipPath>
</defs>
</svg>
