<svg width="49" height="58" viewBox="0 0 49 58" fill="none" xmlns="http://www.w3.org/2000/svg">
<path d="M24.5002 57.1422L0 42.9936V14.6977L24.5002 0.549561L49 14.6977V42.9936L24.5002 57.1422ZM3.31813 41.0783L24.5002 53.3103L45.6819 41.0783V16.6135L24.5002 4.3815L3.31813 16.6135V41.0783Z" fill="#3B4A9E"/>
<path d="M12.6931 35.6523L5.88672 28.8459L12.6931 22.0391L15.0398 24.3857L10.5792 28.8459L15.0398 33.306L12.6931 35.6523Z" fill="#3B4A9E"/>
<path d="M36.3069 35.6523L33.9607 33.306L38.4209 28.8459L33.9607 24.3857L36.3069 22.0391L43.1137 28.8459L36.3069 35.6523Z" fill="#3B4A9E"/>
<path d="M26.921 20.2925L29.8886 21.776L22.0783 37.397L19.1104 35.913L26.921 20.2925Z" fill="#3B4A9E"/>
</svg>
